<svg id="Layer_1" data-name="Layer 1" xmlns="http://www.w3.org/2000/svg" viewBox="0 0 600 600"><defs><style>.cls-1{fill:#000000;}</style></defs><path class="cls-1" d="M179.62,484.33c.88,2.9,1.33,5,2.14,6.94a88.29,88.29,0,0,0,81.5,54.87q36.71.18,73.41,0a85.2,85.2,0,0,0,57.47-21.74c20.43-17.91,30.29-40.65,30.27-67.8q0-88.85.12-177.7c0-3.81-1.5-4.94-5-4.83-5.15.16-119,.07-170.79-.06-4.22,0-5.93,1.07-5.84,5.54.24,11.64.08,23.29.08,34.93v10.79H366.51c6.56,0,6.62,0,6.62,6.77,0,41.6.09,83.2,0,124.8-.06,22.62-15.75,38.12-38.4,38.18-23.13.06-46.27,0-69.41,0a40.14,40.14,0,0,1-25.49-8.54c-1.25-1-2.86-2.09-4.32-2.1C217.2,484.28,198.91,484.33,179.62,484.33Zm60.61-301.48v-.06q35.22,0,70.42,0c13.32,0,26.65-.25,40,.11,5.16.14,6.49-1.54,6.35-6.47-.32-11.47-.07-23-.12-34.44,0-1.81-.55-3.61-.62-5.43-.15-4.09-2.3-5-6.16-5q-110.88.16-221.76.06c-41.17-.06-77.17,35.48-76.23,76.87.29,13,.26,26,0,38.94a71.83,71.83,0,0,0,10.37,39.46c11.64,19.29,28.17,32.65,50.6,36.24,14,2.23,28.46,1.51,42.71,2.16,3,.13,3.57-1.44,3.55-4-.09-14.15-.18-28.29,0-42.43,0-3.51-1.21-4.74-4.58-4.69-7.66.11-15.32,0-23,.05-17.52.14-28.48-10.5-28.64-28-.11-11.48.49-23-.11-34.44-.86-16.23,11.75-29.16,28.39-29C167.64,183.11,203.94,182.85,240.23,182.85ZM52.11,345.45v45.44c0,42.14,33.59,76.67,75.62,76.83,74.42.29,148.85.08,223.27.16,3.08,0,4.74-.87,5-4,.22-2.48.79-4.94.81-7.41.11-10.48.1-21,.07-31.45,0-2.6-.24-5.19-.39-8.37-4.28,0-154.39,0-225.65,0-16.91,0-27.77-10.93-27.82-27.76-.05-13.32.07-26.63.09-39.94,0-1.1-.17-2.2-.27-3.47ZM373.4,239.62c16.23,0,31.87,0,47.51,0,3.27,0,3.6-1.87,3.59-4.58-.09-30.29-.05-60.58-.12-90.88a99.64,99.64,0,0,0-5.26-33.3c-11-31.27-43.19-56.1-76.2-57-28-.74-56-1.25-83.91,0-36.47,1.61-61.79,20.77-76.82,53.79-1,2.15-1.58,4.48-2.4,6.83A12.8,12.8,0,0,0,182,115c17.8.07,35.6.17,53.4.11a6.94,6.94,0,0,0,3.88-1.78,37.29,37.29,0,0,1,24.88-8.68c23.15.08,46.3,0,69.44,0,24.73,0,39.56,14.74,39.57,39.37q0,45.44,0,90.88C373.14,236.24,373.28,237.53,373.4,239.62ZM547.7,348.49c-.17-34.78-28.36-68-62.88-72.74-13.27-1.81-26.88-1.07-40.33-1.56-3.56-.13-3.93,1.92-3.92,4.77.06,14,.11,28-.09,41.93-.06,3.73,1.55,4.5,4.76,4.45,8-.13,16-.12,24,0,16.1.14,27.34,11.15,27.53,27.14.14,12.82.1,25.63,0,38.45a25.81,25.81,0,0,1-25.77,25.68c-8.65.1-17.31.09-26,0-2.75,0-4.38.57-4.36,3.83q.12,21.72-.08,43.43c0,3,1,4.14,4.05,4.09,9-.14,18-.07,27-.1,37.6-.14,69.37-28.24,75-63.53C548.24,393.54,547.74,356.14,547.7,348.49ZM226.45,199.29H178.66c-2.93,0-3.39,1.72-3.38,4.27q.14,46.16.13,92.31c0,33.1,0,66.19-.11,99.29,0,4.1,1.14,5.46,5.39,5.38,13.48-.26,27-.22,40.43,0,4.31.08,5.67-1.21,5.66-5.67q-.22-95.3-.12-190.6C226.66,203,226.55,201.66,226.45,199.29Zm214.27-67.8c0,16.7,0,32.48,0,48.27,0,3.25,2.11,3.21,4.4,3.2,8.48-.06,17-.31,25.45-.06,15.34.45,26.11,11.67,26.18,26.94,0,8.31.16,16.64-.1,24.95-.12,3.78,1.19,4.9,4.87,4.82,9.81-.21,19.64-.1,29.46-.11h16.75c0-11.74,0-22.85,0-34-.16-30.37-23.23-60.57-52.06-70C477.62,129.72,459.43,132.62,440.72,131.49Z"/><path class="cls-1" d="M179.62,484.33c19.29,0,37.58-.05,55.87.09,1.46,0,3.07,1.13,4.32,2.1a40.14,40.14,0,0,0,25.49,8.54c23.14,0,46.28,0,69.41,0,22.65-.06,38.34-15.56,38.4-38.18.11-41.6,0-83.2,0-124.8,0-6.75-.06-6.77-6.62-6.77H243V314.5c0-11.64.16-23.29-.08-34.93-.09-4.47,1.62-5.55,5.84-5.54,51.77.13,165.64.22,170.79.06,3.53-.11,5,1,5,4.83q-.18,88.84-.12,177.7c0,27.15-9.84,49.89-30.27,67.8a85.2,85.2,0,0,1-57.47,21.74q-36.71.15-73.41,0a88.29,88.29,0,0,1-81.5-54.87C181,489.32,180.5,487.23,179.62,484.33Z"/><path class="cls-1" d="M131.35,182.73c-16.64-.17-29.25,12.76-28.39,29,.6,11.45,0,23,.11,34.44.16,17.53,11.12,28.17,28.64,28,7.65-.05,15.31.06,23-.05,3.37-.05,4.61,1.18,4.58,4.69-.15,14.14-.06,28.28,0,42.43,0,2.59-.56,4.16-3.55,4-14.25-.65-28.71.07-42.71-2.16-22.43-3.59-39-16.95-50.6-36.24a71.83,71.83,0,0,1-10.37-39.46c.27-13,.3-26,0-38.94-.94-41.39,35.06-76.93,76.23-76.87q110.88.16,221.76-.06c3.86,0,6,.91,6.16,5,.07,1.82.61,3.62.62,5.43.05,11.48-.2,23,.12,34.44.14,4.93-1.19,6.61-6.35,6.47C337.3,182.54,167.64,183.11,131.35,182.73Z"/><path class="cls-1" d="M52.11,345.45h50.75c.1,1.27.28,2.37.27,3.47,0,13.31-.14,26.62-.09,39.94,0,16.83,10.91,27.74,27.82,27.76,71.26.05,221.37,0,225.65,0,.15,3.18.38,5.77.39,8.37,0,10.48,0,21-.07,31.45,0,2.47-.59,4.93-.81,7.41-.28,3.14-1.94,4-5,4-74.42-.08-148.85.13-223.27-.16-42-.16-75.62-34.69-75.62-76.83Z"/><path class="cls-1" d="M373.4,239.62c-.12-2.09-.26-3.38-.26-4.67q0-45.45,0-90.88c0-24.63-14.84-39.37-39.57-39.37-23.14,0-46.29.06-69.44,0a37.29,37.29,0,0,0-24.88,8.68,6.94,6.94,0,0,1-3.88,1.78c-17.8.06-35.6,0-53.4-.11a12.8,12.8,0,0,1-2.18-.53c.82-2.35,1.42-4.68,2.4-6.83,15-33,40.35-52.18,76.82-53.79,27.92-1.23,55.95-.72,83.91,0,33,.87,65.2,25.7,76.2,57a99.64,99.64,0,0,1,5.26,33.3c.07,30.3,0,60.59.12,90.88,0,2.71-.32,4.59-3.59,4.58C405.27,239.6,389.63,239.62,373.4,239.62Z"/><path class="cls-1" d="M546.53,404.3c-5.61,35.29-37.38,63.39-75,63.53-9,0-18,0-27,.1-3,.05-4.08-1.07-4.05-4.09q.2-21.72.08-43.43c0-3.26,1.61-3.85,4.36-3.83,8.66.07,17.32.08,26,0a25.81,25.81,0,0,0,25.77-25.68c.14-12.82.18-25.63,0-38.45-.19-16-11.43-27-27.53-27.14-8-.07-16-.08-24,0-3.21.05-4.82-.72-4.76-4.45.2-14,.15-27.95.09-41.93,0-2.85.36-4.9,3.92-4.77,13.45.49,27.06-.25,40.33,1.56,34.52,4.73,62.71,38,62.88,72.74C547.74,356.14,548.24,393.54,546.53,404.3Z"/><path class="cls-1" d="M226.45,199.29c.1,2.37.21,3.68.21,5q0,95.31.12,190.6c0,4.46-1.35,5.75-5.66,5.67-13.47-.22-27-.26-40.43,0-4.25.08-5.41-1.28-5.39-5.38.14-33.1.12-66.19.11-99.29q0-46.15-.13-92.31c0-2.55.45-4.26,3.38-4.27Z"/><path class="cls-1" d="M440.72,131.49c18.71,1.13,36.9-1.77,54.93,4.09,28.83,9.39,51.9,39.59,52.06,70,0,11.11,0,22.22,0,34H531c-9.82,0-19.65-.1-29.46.11-3.68.08-5-1-4.87-4.82.26-8.31.13-16.64.1-24.95-.07-15.27-10.84-26.49-26.18-26.94-8.47-.25-17,0-25.45.06-2.29,0-4.41,0-4.4-3.2C440.75,164,440.72,148.19,440.72,131.49Z"/></svg>